# xmcd
#
# Track frame offsets:
#	150
#	20556
#	50451
#	75666
#	97599
#	119228
#	135409
#	174275
#	203719
#	220196
#	238033
#	258156
#
# Disc length: 3757 seconds
#
# Revision: 2
# Processed by: cddbd v1.4b42PL1 Copyright (c) Steve Scherf et al.
# Submitted via: EasyCDDAExtractor 4.5.0.1
#
DISCID=990eab0c
DTITLE=Bob Dylan - Tangled Up In Blues
DYEAR=1900
DGENRE=blues
TTITLE0=It Takes A Lot To Laugh, It Takes A Train To Cry
TTITLE1=Gotta Serve Somebody
TTITLE2=Lay Lady Lay
TTITLE3=Everything Is Broken
TTITLE4=Pledging My Time
TTITLE5=I'll Be Your Baby Tonight
TTITLE6=Ballad Of A Thin Man
TTITLE7=Million Miles
TTITLE8=Watching The River Flow
TTITLE9=Wallflower
TTITLE10=All Along The Watchtower
TTITLE11=One Too Many Mornings
EXTD=Songs Of Bob Dylan
EXTT0=Taj Mahalt
EXTT1=Mavis Staples
EXTT2=Isaac Hayes
EXTT3=R.L. Burnside
EXTT4=Luther "Guitar Jr." Johnson
EXTT5=John Hammond
EXTT6=James Solberg
EXTT7=Alvin "Youngblood" Hart
EXTT8=Leon Russel
EXTT9=The Holmes Brothers
EXTT10=Larry McCray
EXTT11=The Band
PLAYORDER=
